REM DIRINDEX 1\2,1\3,1\4,1\5
REM DIRNAME folder01,folder02,folder03,folder04,folder05
TITLE ""
FILE "P1Q_t_0060-0069.mp3" MP3
  TRACK 01 AUDIO
    TITLE "3:cjc005_1080"
    INDEX 01 00:00:00
  TRACK 02 AUDIO
    TITLE "0:"
    INDEX 01 00:00:70
  TRACK 03 AUDIO
    TITLE "4:cjc005_1081"
    INDEX 01 00:01:21
  TRACK 04 AUDIO
    TITLE "0:"
    INDEX 01 00:02:28
  TRACK 05 AUDIO
    TITLE "5:cjc005_1082"
    INDEX 01 00:02:55
  TRACK 06 AUDIO
    TITLE "0:"
    INDEX 01 00:06:45
  TRACK 07 AUDIO
    TITLE "3:cjc005_1083"
    INDEX 01 00:07:29
  TRACK 08 AUDIO
    TITLE "0:"
    INDEX 01 00:08:46
  TRACK 09 AUDIO
    TITLE "4:cjc005_1084"
    INDEX 01 00:08:72
  TRACK 10 AUDIO
    TITLE "0:"
    INDEX 01 00:10:04
  TRACK 11 AUDIO
    TITLE "5:cjc005_1085"
    INDEX 01 00:10:25
  TRACK 12 AUDIO
    TITLE "0:"
    INDEX 01 00:14:15
  TRACK 13 AUDIO
    TITLE "3:cjc005_1086"
    INDEX 01 00:14:72
  TRACK 14 AUDIO
    TITLE "0:"
    INDEX 01 00:16:24
  TRACK 15 AUDIO
    TITLE "4:cjc005_1087"
    INDEX 01 00:16:53
  TRACK 16 AUDIO
    TITLE "0:"
    INDEX 01 00:18:58
  TRACK 17 AUDIO
    TITLE "5:cjc005_1088"
    INDEX 01 00:19:07
  TRACK 18 AUDIO
    TITLE "0:"
    INDEX 01 00:23:16
  TRACK 19 AUDIO
    TITLE "3:cjc005_1089"
    INDEX 01 00:23:67
  TRACK 20 AUDIO
    TITLE "0:"
    INDEX 01 00:24:74
  TRACK 21 AUDIO
    TITLE "4:cjc005_1090"
    INDEX 01 00:25:27
  TRACK 22 AUDIO
    TITLE "0:"
    INDEX 01 00:26:52
  TRACK 23 AUDIO
    TITLE "5:cjc005_1091"
    INDEX 01 00:27:04
  TRACK 24 AUDIO
    TITLE "0:"
    INDEX 01 00:30:42
  TRACK 25 AUDIO
    TITLE "3:cjc005_1092"
    INDEX 01 00:31:29
  TRACK 26 AUDIO
    TITLE "0:"
    INDEX 01 00:32:25
  TRACK 27 AUDIO
    TITLE "4:cjc005_1093"
    INDEX 01 00:32:56
  TRACK 28 AUDIO
    TITLE "0:"
    INDEX 01 00:34:24
  TRACK 29 AUDIO
    TITLE "5:cjc005_1094"
    INDEX 01 00:34:43
  TRACK 30 AUDIO
    TITLE "0:"
    INDEX 01 00:38:30
  TRACK 31 AUDIO
    TITLE "3:cjc005_1095"
    INDEX 01 00:39:19
  TRACK 32 AUDIO
    TITLE "0:"
    INDEX 01 00:40:09
  TRACK 33 AUDIO
    TITLE "4:cjc005_1096"
    INDEX 01 00:40:46
  TRACK 34 AUDIO
    TITLE "0:"
    INDEX 01 00:41:57
  TRACK 35 AUDIO
    TITLE "5:cjc005_1097"
    INDEX 01 00:42:08
  TRACK 36 AUDIO
    TITLE "0:"
    INDEX 01 00:46:49
  TRACK 37 AUDIO
    TITLE "3:cjc005_1098"
    INDEX 01 00:47:25
  TRACK 38 AUDIO
    TITLE "0:"
    INDEX 01 00:48:42
  TRACK 39 AUDIO
    TITLE "4:cjc005_1099"
    INDEX 01 00:48:65
  TRACK 40 AUDIO
    TITLE "0:"
    INDEX 01 00:50:19
  TRACK 41 AUDIO
    TITLE "5:cjc005_1100"
    INDEX 01 00:50:41
  TRACK 42 AUDIO
    TITLE "0:"
    INDEX 01 00:54:29
  TRACK 43 AUDIO
    TITLE "3:cjc005_1101"
    INDEX 01 00:55:06
  TRACK 44 AUDIO
    TITLE "0:"
    INDEX 01 00:56:18
  TRACK 45 AUDIO
    TITLE "4:cjc005_1102"
    INDEX 01 00:56:43
  TRACK 46 AUDIO
    TITLE "0:"
    INDEX 01 00:58:01
  TRACK 47 AUDIO
    TITLE "5:cjc005_1103"
    INDEX 01 00:58:22
  TRACK 48 AUDIO
    TITLE "0:"
    INDEX 01 01:01:66
  TRACK 49 AUDIO
    TITLE "3:cjc005_1104"
    INDEX 01 01:02:52
  TRACK 50 AUDIO
    TITLE "0:"
    INDEX 01 01:04:03
  TRACK 51 AUDIO
    TITLE "4:cjc005_1105"
    INDEX 01 01:04:25
  TRACK 52 AUDIO
    TITLE "0:"
    INDEX 01 01:05:54
  TRACK 53 AUDIO
    TITLE "5:cjc005_1106"
    INDEX 01 01:05:71
  TRACK 54 AUDIO
    TITLE "0:"
    INDEX 01 01:10:04
  TRACK 55 AUDIO
    TITLE "3:cjc005_1107"
    INDEX 01 01:10:51
  TRACK 56 AUDIO
    TITLE "0:"
    INDEX 01 01:11:70
  TRACK 57 AUDIO
    TITLE "4:cjc005_1108"
    INDEX 01 01:12:26
  TRACK 58 AUDIO
    TITLE "0:"
    INDEX 01 01:13:63
  TRACK 59 AUDIO
    TITLE "5:cjc005_1109"
    INDEX 01 01:14:16
  TRACK 60 AUDIO
    TITLE "0:"
    INDEX 01 01:18:33
